<svg version="1.2" xmlns="http://www.w3.org/2000/svg" viewBox="0 0 464 321" width="464" height="321">
	<title>Objeto inteligente vectorial-ai</title>
	<style>
		.s0 { fill: #000000 } 
		.s1 { fill: #00ffbd } 
		.s2 { fill: #ff3ef4 } 
		.s3 { fill: #7700f5 } 
		.s4 { fill: #f1e000 } 
		.s5 { fill: #080006 } 
		.s6 { fill: #42008c } 
		.s7 { fill: #ffffff } 
	</style>
	<g id="Modo de aislamiento">
		<g id="&lt;Group&gt;">
			<g id="&lt;Group&gt;">
				<g id="&lt;Group&gt;">
					<path id="&lt;Compound Path&gt;" fill-rule="evenodd" class="s0" d="m231.8 264.9q-0.4 0-0.8-0.1c-5-0.3-9.8-1.9-13.9-4.6-22-14.5-80.9-56.6-151.4-133.6-6.1-6.7-7.9-16-4.6-24.4 3.3-8.4 11-14.1 20.1-15 24.5-2.3 66.7-4.7 128.2-3.5 9.5 0.2 19.4 0.5 29.4 0.8q4.9 0.2 9.9 0.4c40.2 1.7 83.2 4.7 128 9.1 4.5 0.4 8.7 2 12.2 4.7 5.1 3.8 8.5 9.6 9.3 16 0.8 6.3-0.9 12.5-5 17.5-16.9 21.2-58.1 65.8-143.5 127.3-5.2 3.7-11.5 5.6-17.9 5.4zm6.3-160.5c-9.9-0.3-19.7-0.6-29.1-0.8-60.5-1.2-101.9 1.2-125.9 3.5-1.5 0.1-2.7 1-3.2 2.3-0.6 1.4-0.3 2.8 0.7 3.9 68.9 75.2 126.2 116.2 147.6 130.3 1.3 0.8 2.8 1.3 4.4 1.4 1.9 0 3.7-0.5 5.2-1.6 35.9-25.8 101.7-76.2 139.7-123.6q1-1.2 0.8-2.6c-0.1-1.1-0.7-2-1.5-2.7q-0.9-0.6-2-0.7c-25.4-2.5-50.6-4.5-74.8-6.1-17.7-1.2-35.3-2.2-52.1-2.9q-4.9-0.2-9.8-0.4z"/>
				</g>
				<g id="&lt;Group&gt;">
					<path id="&lt;Compound Path&gt;" fill-rule="evenodd" class="s0" d="m229.1 259.3c-4.3-0.3-8.6-1.7-12.3-4.1-21.9-14.5-80.6-56.4-150.8-133-5.3-5.8-6.8-13.9-3.9-21.1 2.8-7.2 9.4-12.2 17.2-12.9 24.5-2.3 66.6-4.7 127.9-3.5 12.6 0.2 25.8 0.6 39.3 1.2 40.1 1.7 83.1 4.7 127.8 9 3.8 0.4 7.5 1.8 10.5 4.1 4.4 3.3 7.4 8.4 8.1 13.8 0.7 5.4-0.8 10.8-4.3 15.1-16.9 21-57.9 65.4-142.9 126.7-4.9 3.5-10.8 5.1-16.6 4.7zm69-157.2c-17.8-1.2-35.3-2.1-52.2-2.8-13.3-0.6-26.4-1-38.9-1.2-60.7-1.2-102.2 1.2-126.4 3.4-2.7 0.3-4.9 1.9-5.9 4.5-1 2.5-0.5 5.2 1.4 7.2 69.2 75.5 126.7 116.7 148.2 130.9 4.1 2.6 9.4 2.5 13.3-0.3 36-25.9 102.1-76.5 140.3-124.2 1.6-1.9 1.7-3.8 1.5-5.1-0.2-1.9-1.3-3.7-2.8-4.8q0 0 0 0-1.6-1.2-3.6-1.4c-25.6-2.5-50.6-4.6-74.9-6.2z"/>
				</g>
				<g id="&lt;Group&gt;">
					<g id="&lt;Group&gt;">
						<g id="&lt;Group&gt;">
							<g id="&lt;Group&gt;">
								<g id="&lt;Group&gt;">
									<path id="&lt;Path&gt;" class="s1" d="m379.2 101.7c5.8 4.4 7.6 13.1 2.5 19.4-21.2 26.4-64.8 70.2-141.6 125.5-6.2 4.4-14.6 4.6-21.1 0.4-23-15.2-80.3-56.4-149.5-131.9-7.7-8.4-2.4-21.8 9-22.8 24.5-2.3 66.3-4.7 127.1-3.5q18.3 0.3 39.1 1.2c36.8 1.5 79.2 4.3 127.4 9 2.7 0.3 5.1 1.2 7.1 2.7z"/>
								</g>
							</g>
						</g>
					</g>
				</g>
				<path id="&lt;Path&gt;" class="s2" d="m264.8 143.4l-0.2 0.3v-0.5z"/>
				<path id="&lt;Path&gt;" class="s3" d="m340.9 198.6l-0.3-0.3q0.2 0.1 0.3 0.3z"/>
				<g id="&lt;Group&gt;">
					<path id="&lt;Path&gt;" class="s4" d="m421.4 203.5v0.1c0 0.1-0.1 0.3-0.2 0.3-6 1.7-10.8 10.5-12 21.8 0 0.2-0.2 0.3-0.3 0.3-0.1 0-0.3-0.1-0.3-0.3-1.2-11.3-6-20.1-12-21.8-0.1 0-0.2-0.2-0.2-0.3v-0.1c0-0.1 0.1-0.2 0.2-0.3 6-1.7 10.8-10.5 12-21.8 0-0.1 0.2-0.2 0.3-0.2 0.1 0 0.3 0.1 0.3 0.2 1.2 11.3 6 20.1 12 21.8 0.1 0.1 0.2 0.2 0.2 0.3z"/>
				</g>
				<g id="&lt;Group&gt;">
					<path id="&lt;Path&gt;" class="s4" d="m426.9 170.4q0 0.1-0.1 0.2c-3 0.9-5.5 5.4-6.1 11.2q0 0.1-0.2 0.1-0.1 0-0.1-0.1c-0.6-5.8-3.1-10.3-6.2-11.2q-0.1-0.1-0.1-0.2 0-0.1 0.1-0.2c3.1-0.8 5.6-5.4 6.2-11.2q0-0.1 0.1-0.1 0.2 0 0.2 0.1c0.6 5.8 3.1 10.4 6.1 11.2q0.1 0.1 0.1 0.2z"/>
				</g>
				<g id="&lt;Group&gt;">
					<path id="&lt;Path&gt;" class="s4" d="m64.4 78.3v0.2c0 0.1-0.1 0.2-0.2 0.2-6.1 1.8-10.9 10.6-12 21.9 0 0.1-0.2 0.2-0.3 0.2-0.2 0-0.3-0.1-0.3-0.2-1.2-11.3-6-20.1-12-21.9-0.1 0-0.2-0.1-0.2-0.2v-0.2c0-0.1 0.1-0.2 0.2-0.2 6-1.8 10.8-10.6 12-21.9 0-0.1 0.1-0.2 0.3-0.2 0.1 0 0.3 0.1 0.3 0.2 1.1 11.3 5.9 20.1 12 21.9 0.1 0 0.2 0.1 0.2 0.2z"/>
				</g>
			</g>
			<path id="&lt;Path&gt;" class="s5" d="m149.5 137c-8.3 0-16.2-3.2-22.2-9.1l-0.6-0.6-11.1-11.1c-0.9-0.8-1-2.1-0.4-3.1 0.1 0 1.1-1.6 2.8-4.1q0-0.4-0.1-0.8-0.3-3.5 0.1-6.9c1.8-14.7 13.9-26.4 28.7-27.7q1.4-0.1 2.8-0.1 0.8 0 1.5 0c2.8-1.6 5.5-2.5 7.9-2.7q0.1 0 0.2 0c0.6 0 1.2 0.3 1.7 0.8l9.3 9.3q0.2 0.1 0.3 0.3c6.2 5.4 10.1 12.9 10.8 21.2 1.1 12.2-5 24.1-15.6 30.3q-0.1 0-0.1 0.1c-4 2.3-8.4 3.7-13 4.1q-1.5 0.1-3 0.1z"/>
			<path id="&lt;Path&gt;" class="s5" d="m209.5 134.4c-7.3 0-14.2-2.7-19.6-7.6 0-0.1-0.1-0.2-0.1-0.2l-11.9-11.9c-0.9-0.8-1-2.2-0.3-3.1l2.8-3.7q0-0.1 0.1-0.2c-0.7-7.7 1.7-15.2 6.6-21.1 5-6 12-9.7 19.8-10.4q1.3-0.1 2.6-0.1 1 0 1.9 0.1l3.4-3.4c0.4-0.5 1-0.7 1.7-0.7q0 0 0 0c0.7 0 1.3 0.2 1.7 0.7 0 0 11.4 11.3 11.4 11.3 5.1 4.9 8.3 11.4 8.9 18.5 1.1 11.6-4.9 22.7-15.1 28.2-3.5 1.9-7.3 3.1-11.2 3.4q-1.4 0.2-2.7 0.2z"/>
			<path id="&lt;Path&gt;" class="s5" d="m266.3 133.9c-7.5 0-14.6-2.9-20.1-8.2l-12.5-12.4c-0.7-0.7-0.9-1.7-0.6-2.6 0.4-0.9 1.2-1.5 2.1-1.6l2.4-0.2q-0.1-0.3-0.1-0.6-0.1-0.4-0.1-0.9c-0.7-7.8 1.6-15.3 6.6-21.3 5-6 12-9.7 19.7-10.4q1.4-0.1 2.7-0.1 2.4 0 4.8 0.4c0.1-1.1 0.2-1.8 0.2-1.8 0.1-0.9 0.8-1.7 1.6-2q0.4-0.1 0.8-0.1c0.7 0 1.3 0.2 1.8 0.7l10.5 10.5c5.3 4.9 8.6 11.6 9.3 18.8 1 11.2-4.6 22-14.2 27.7-3.8 2.2-7.8 3.6-12.2 3.9q-1.3 0.2-2.7 0.2z"/>
			<path id="&lt;Path&gt;" class="s5" d="m325.9 130.1c-8.3 0-16.2-3.2-22.1-9q-0.1-0.1-0.2-0.2l-0.6-0.6-11.1-11.1c-0.8-0.8-1-2.1-0.3-3 0-0.1 1-1.6 2.7-4.1q0-0.5 0-0.9c-0.3-2.3-0.2-4.6 0.1-6.9 1.8-14.7 13.9-26.3 28.6-27.7q1.4-0.1 2.9-0.1 0.7 0 1.4 0c2.9-1.6 5.6-2.5 8-2.6q0 0 0.1 0c0.7 0 1.3 0.2 1.7 0.7l9.3 9.3q0.2 0.2 0.3 0.4c6.3 5.4 10.1 12.9 10.9 21.1 1.1 12.2-5 24.1-15.6 30.3q-0.1 0.1-0.2 0.1c-4 2.3-8.3 3.7-13 4.2q-1.5 0.1-2.9 0.1z"/>
			<g id="&lt;Group&gt;">
				<path id="&lt;Path&gt;" class="s5" d="m164.3 130.6v0.1c-3.6 2-7.7 3.4-12.1 3.8-8.9 0.8-17.3-2.5-23.2-8.3l-0.6-0.6-11.1-11.1c0 0 1.2-1.9 3.3-4.9q-0.2-0.8-0.3-1.7-0.2-3.2 0.1-6.3c1.7-13.4 12.5-24.3 26.5-25.6q2.4-0.2 4.7 0c2.6-1.6 5.1-2.6 7.5-2.7l9.3 9.3-0.1 0.1c5.8 4.8 9.8 11.8 10.5 19.9 1.1 11.7-4.9 22.5-14.5 28z"/>
				<path id="&lt;Path&gt;" class="s5" d="m222.2 128.7c-3.1 1.7-6.5 2.8-10.3 3.1-7.7 0.7-15-2-20.4-6.8v-0.1l-1.7-1.7-10.2-10.2 2.7-3.7 0.7-0.7q0-0.5-0.1-0.9c-1.3-14.7 9.5-27.7 24.2-29q2.7-0.3 5.3 0l4.1-4.2 11.3 11.3c4.6 4.3 7.7 10.2 8.3 17 1 11-4.8 21-13.9 25.9z"/>
				<path id="&lt;Path&gt;" class="s5" d="m279.9 127.7c-3.3 2-7 3.2-11.1 3.6-8 0.7-15.5-2.2-20.9-7.3l-12.5-12.5 5.1-0.4q-0.4-1.5-0.6-3-0.1-0.5-0.1-0.9c-1.3-14.7 9.5-27.7 24.1-29 3.3-0.3 6.4 0 9.3 0.8 0.4-2.7 0.6-4.5 0.6-4.5l10.6 10.6c4.7 4.3 7.9 10.3 8.6 17.2 0.9 10.6-4.5 20.4-13.1 25.4z"/>
				<path id="&lt;Path&gt;" class="s5" d="m340.6 123.7c-3.6 2.1-7.6 3.4-12 3.8-9 0.8-17.3-2.4-23.3-8.3l-0.6-0.6-11.1-11.1c0 0 1.2-1.9 3.3-4.8q-0.1-0.9-0.2-1.7-0.3-3.3 0.1-6.4c1.7-13.4 12.5-24.3 26.5-25.5q2.3-0.2 4.6-0.1c2.7-1.6 5.2-2.5 7.5-2.7l9.3 9.3v0.1c5.8 4.8 9.7 11.8 10.4 19.9 1.1 11.8-4.9 22.6-14.5 28.1z"/>
			</g>
			<path id="&lt;Path&gt;" class="s5" d="m137.5 125c-16.5 0-30.1-12.4-31.6-28.9-1.6-17.4 11.3-32.9 28.7-34.5q1.5-0.2 3-0.2c16.5 0 30.1 12.5 31.6 28.9 0.8 8.5-1.8 16.7-7.2 23.3-5.5 6.5-13.1 10.5-21.6 11.3q-1.4 0.1-2.9 0.1z"/>
			<path id="&lt;Path&gt;" class="s5" d="m197.3 122.2c-15.2 0-27.6-11.4-29-26.5-0.7-7.8 1.7-15.3 6.6-21.3 5-6 12-9.7 19.8-10.4q1.3-0.1 2.6-0.1c15.2 0 27.6 11.4 29 26.5 0.7 7.7-1.6 15.3-6.6 21.3-5 5.9-12 9.6-19.7 10.3q-1.4 0.2-2.7 0.2z"/>
			<path id="&lt;Path&gt;" class="s5" d="m254.1 121.7c-15.1 0-27.5-11.4-28.9-26.5-0.7-7.8 1.6-15.3 6.6-21.3 5-6 12-9.7 19.7-10.4q1.4-0.1 2.7-0.1c15.2 0 27.6 11.4 29 26.5 0.7 7.7-1.7 15.3-6.6 21.3-5 6-12 9.6-19.8 10.4q-1.3 0.1-2.7 0.1z"/>
			<path id="&lt;Path&gt;" class="s5" d="m313.7 117.9c-16.5 0-30.1-12.4-31.6-28.9-0.8-8.5 1.8-16.7 7.2-23.2 5.4-6.6 13.1-10.6 21.5-11.4q1.5-0.1 3-0.1c16.5 0 30.1 12.4 31.6 28.9 0.8 8.5-1.8 16.7-7.2 23.2-5.5 6.6-13.1 10.6-21.6 11.4q-1.5 0.1-2.9 0.1z"/>
			<g id="&lt;Group&gt;">
				<g id="&lt;Group&gt;">
					<g id="&lt;Group&gt;">
						<path id="&lt;Path&gt;" class="s3" d="m166.8 90.6c1.4 16.1-10.5 30.4-26.6 31.8-16.1 1.5-30.4-10.4-31.9-26.5-1.5-16.2 10.4-30.4 26.6-31.9 16.1-1.5 30.4 10.4 31.9 26.6z"/>
						<path id="&lt;Path&gt;" class="s3" d="m223.9 90.6c1.3 14.7-9.5 27.7-24.2 29-14.6 1.3-27.6-9.5-29-24.1-1.3-14.7 9.5-27.7 24.2-29 14.7-1.4 27.6 9.4 29 24.1z"/>
						<path id="&lt;Path&gt;" class="s3" d="m280.8 90.1c1.3 14.7-9.5 27.7-24.2 29-14.7 1.4-27.7-9.5-29-24.1-1.3-14.7 9.5-27.7 24.2-29 14.6-1.4 27.6 9.4 29 24.1z"/>
						<path id="&lt;Path&gt;" class="s3" d="m342.9 83.4c1.5 16.2-10.4 30.5-26.5 31.9-16.2 1.5-30.4-10.4-31.9-26.5-1.5-16.2 10.4-30.5 26.6-31.9 16.1-1.5 30.4 10.4 31.8 26.5z"/>
					</g>
				</g>
			</g>
			<g id="&lt;Group&gt;">
				<path id="&lt;Path&gt;" class="s5" d="m296.8 214.6c-4.6 0-8.8-0.9-12.7-2.5-3.8-1.6-7.2-3.9-10-6.8l-12.2-12.2c-0.6-0.6-0.8-1.5-0.6-2.3l8.3-35.9c0.1-0.6 0.6-1.2 1.2-1.5l1.7-1c0-0.9 0.6-1.8 1.5-2.1q0.4-0.2 0.9-0.2 0.6 0 1.2 0.3l27.7-15.4q0.5-0.3 1.2-0.3c0.6 0 1.2 0.3 1.7 0.7l12.2 12.2c0.5 0.5 0.7 1.2 0.7 1.9l-1.2 16.1 5.1 5.1c0.5 0.5 0.7 1.1 0.7 1.7l0.6 29.4c0 0.6-0.2 1.1-0.6 1.6-1.5 1.9-3.4 3.6-5.6 5-2.2 1.4-4.5 2.6-7 3.5-2.4 0.9-4.9 1.5-7.5 2-2.6 0.4-5 0.7-7.3 0.7z"/>
				<path id="&lt;Path&gt;" class="s5" d="m322.3 201.9q-2 2.6-5.1 4.5-3 1.9-6.4 3.2-3.5 1.2-7.1 1.9-3.7 0.6-6.9 0.6-6.4 0-11.7-2.3-5.4-2.2-9.2-6.2l-12.2-12.2 2.8-12.3 5.5-23.6 2.9-1.6c0-0.9 0-1.4 0-1.4l0.9 0.9 29.2-16.2 12.2 12.2-1.3 16.7q-0.4-0.2-0.8-0.3l6.7 6.7z"/>
				<path id="&lt;Path&gt;" class="s5" d="m100 214.4c-2.6 0-5.2-0.1-7.9-0.3-2.8-0.2-5.6-0.5-8.3-1-2.8-0.5-5.5-1.1-8.1-1.8-2.7-0.8-5.3-1.8-7.7-3q-0.3-0.2-0.6-0.4l-12.2-12.2c-0.7-0.7-0.9-1.7-0.6-2.5l12-36.8-0.1-28c0-1 0.6-1.9 1.6-2.2 2.3-1 4.8-1.9 7.4-2.6 1.2-0.4 2.2-0.6 3.1-0.9q0.1 0 0.3 0 2.3-0.6 4.5-1c2.8-0.6 5.5-0.9 8.1-1.2 2.6-0.3 5.3-0.4 7.9-0.4q1.5 0 3 0.1l15.2-1.7q0.2 0 0.3 0c0.7 0 1.3 0.3 1.7 0.7l10.1 10.1q1.2 1 2.2 2.2c2 2.2 3.5 4.8 4.6 7.7 1.1 2.8 1.6 6.2 1.6 9.9 0 2.5-0.3 4.9-1 7.1-0.8 2.2-1.8 4.2-3.2 6q-0.2 0.3-0.5 0.6-0.1 0.4-0.5 0.8-1.5 1.7-3.5 3.1l3.3 3.2q2 1.7 3.6 3.6c1.6 2.1 2.9 4.5 3.8 7.1 1 2.6 1.4 5.4 1.4 8.4 0 3.7-0.7 7-2.1 9.7-1.4 2.8-3.2 5.1-5.5 7-1.4 1.1-2.8 2-4.4 2.9q-1.7 0.9-3.4 1.6c-2.7 1.1-5.7 2-8.7 2.6-3 0.6-6 1-9.1 1.3-2.9 0.2-5.7 0.3-8.3 0.3z"/>
				<path id="&lt;Path&gt;" class="s5" d="m139.1 189q0 5-1.9 8.6-1.8 3.6-4.9 6.2-1.8 1.5-4 2.7-1.5 0.8-3.1 1.4-4 1.6-8.3 2.5-4.4 0.9-8.7 1.2-4.4 0.3-8.2 0.3-3.8 0-7.8-0.3-4-0.2-8-0.9-3.9-0.7-7.8-1.8-3.9-1.1-7.3-2.8l-12.2-12.2 5-15.3 7.1-21.8v-28.4q3.4-1.4 7.2-2.5 1.6-0.4 3.2-0.8 2.2-0.6 4.5-1 4-0.8 7.9-1.2 3.9-0.4 7.6-0.4 1.5 0 3 0.1l15.3-1.6 0.2-0.1 10.1 10.2q1.1 0.9 2.1 2 2.6 3 4.1 6.9 1.5 3.9 1.5 9.1 0 3.3-1 6.3-0.9 2.9-2.7 5.3-0.4 0.5-0.9 1 0 0.1-0.1 0.1l0.1 0.2q-1.5 1.7-3.5 3-1 0.6-2.1 1.1l5.6 5.7q1.8 1.4 3.2 3.2 2.3 2.8 3.5 6.4 1.3 3.6 1.3 7.6z"/>
				<path id="&lt;Compound Path&gt;" fill-rule="evenodd" class="s5" d="m169.3 211.4c-3 0-5.9-0.4-8.6-1.1-2.6-0.8-5.2-1.9-7.6-3.2-2.3-1.4-4.5-3.1-6.4-5.1l-12.2-12.1c-0.7-0.7-0.9-1.7-0.5-2.6 0.3-0.9 1.1-1.5 2.1-1.6q0.2 0 0.4 0 0.7 0 1.7 0.2-0.7-3.2-0.7-6.5c0-2.9 0.4-5.7 1.1-8.5 0.7-2.8 1.7-5.4 3-7.8q2-3.7 4.7-6.8 1-1 2-2c1.5-2.3 4.3-3.8 6.5-4.6q2.5-1.4 5.4-2.2c2.6-0.9 5.5-1.3 8.6-1.3q2.7 0 5.4 0.3 0.6-2 2.2-3.7c0.4-0.5 1-0.8 1.7-0.8q0 0 0.1 0c0.6 0 1.2 0.3 1.7 0.7l12.2 12.2c2.8 2.8 5 6.2 6.6 10.2 1.5 3.9 2.3 8.3 2.3 13.1 0 2.9-0.3 5.9-1 8.6-0.7 2.8-1.7 5.4-3 7.9-1.4 2.5-3 4.7-4.8 6.8-1.9 2-4.1 3.8-6.4 5.3-2.3 1.4-4.9 2.6-7.7 3.4-2.7 0.8-5.7 1.2-8.8 1.2zm0-40q-0.9 0-1.7 0.2-0.6 0.1-1.1 0.3c-0.9 0.4-1.6 0.9-2.2 1.6q-0.9 1-1.4 2.4-0.5 1.4-0.5 3 0 1.6 0.5 3.2 0.4 1.5 1.3 2.8c0.5 0.7 1.2 1.3 2 1.8q1.1 0.6 2.6 0.6 1.5 0.1 2.8-0.6 1.2-0.6 2.1-1.6 0.9-1.2 1.4-2.6 0.5-1.5 0.5-3.1 0-1.6-0.4-3.2-0.5-1.4-1.3-2.5-0.8-1.1-2-1.7-1.1-0.6-2.6-0.6z"/>
				<path id="&lt;Compound Path&gt;" fill-rule="evenodd" class="s5" d="m198.6 178.2q0 4.2-1 8.1-1 3.9-2.8 7.3-1.8 3.4-4.4 6.2-2.6 2.9-5.9 4.9-3.2 2-7.1 3.1-3.8 1.2-8.1 1.2-4.1 0-7.9-1.1-3.8-1.1-7-3-3.3-1.9-6-4.6l-12.2-12.2c1.3-0.1 3.2 0.5 5.5 1.4q-0.4-1.1-0.7-2.3-1-3.7-1-7.8 0-4.1 0.9-7.9 1-3.9 2.8-7.3 1.9-3.4 4.4-6.2 1-1.1 2.1-2.1c1-1.7 3.2-3.1 5.6-4q2.4-1.3 5.1-2.1 3.7-1.2 7.9-1.2 3.8 0 7.3 0.7c0.1-1.6 0.7-3.3 2.1-4.9l12.2 12.2q3.9 3.9 6 9.4 2.2 5.4 2.2 12.2zm-20.5 1.2q0-2-0.6-3.9-0.6-1.9-1.7-3.3-1.1-1.5-2.7-2.4-1.7-0.9-3.8-0.9-1.2 0-2.2 0.3-0.9 0.2-1.7 0.5-1.7 0.8-2.9 2.2-1.2 1.3-1.9 3.1-0.6 1.9-0.6 3.9 0 1.9 0.6 3.9 0.5 1.9 1.6 3.5 1.1 1.5 2.8 2.5 1.6 1 3.8 1 2.1 0 3.9-0.9 1.7-0.8 2.9-2.3 1.2-1.4 1.8-3.3 0.7-1.9 0.7-3.9z"/>
				<path id="&lt;Compound Path&gt;" fill-rule="evenodd" class="s5" d="m201.3 212.4c-0.6 0-1.2-0.2-1.7-0.7l-12.2-12.2c-0.7-0.7-0.9-1.7-0.5-2.6 0.4-0.9 1.2-1.5 2.2-1.5h10.2l1.3-50.9c0-1.3 1-2.3 2.3-2.4l7.1-0.3c0.7-4.9 1.4-10.8 1.4-10.8 0.2-1 0.8-1.7 1.7-2q0.4-0.2 0.8-0.2c0.6 0 1.2 0.3 1.7 0.7l12.2 12.2q0.3 0.3 0.5 0.7l11.5 24.1 0.5-21.2c0-1.3 1.1-2.4 2.4-2.4l3.8-0.2c0.2-4.8 1.5-8.8 3.9-11.8 0.5-0.6 1.1-0.9 1.8-1q0.1 0 0.1 0c0.7 0 1.3 0.3 1.8 0.8l12.2 12.1c0.5 0.5 0.7 1.2 0.7 1.9l-3.3 62.6c-0.1 1.2-1.1 2.2-2.3 2.3l-24.1 2.2q-0.2 0-0.3 0c-0.6 0-1.2-0.3-1.7-0.7l-10.2-10.3-0.6 9.3c0 1.3-1.1 2.3-2.4 2.3zm24.1-17.8l3.2-0.3-2.8-7.1z"/>
				<path id="&lt;Path&gt;" class="s5" d="m264.5 144.6v0.4l-3.3 62.1-24.2 2.2-12.2-12.2 7.3-0.6-8-20.6-2 34.1h-20.8l-12.2-12.2h12.5l1.4-53.2 9.2-0.5c0.7-5.1 1.7-12.8 1.7-12.8l12.2 12.2 15.9 33.2 0.8-31.4 6.1-0.2c-0.1-4.5 0.6-9.2 3.4-12.7z"/>
				<path id="&lt;Compound Path&gt;" fill-rule="evenodd" class="s5" d="m365 212.2q-2.9 0-5.8-0.4-2.7-0.4-5.4-1.2c-3.5-1.1-6.8-2.6-9.9-4.5q-3-1.9-5.7-4.4l-0.4-0.3q-1-0.9-1.9-1.9l-10.4-10.4c-0.7-0.7-0.9-1.8-0.5-2.7 0.3-0.8 1-1.3 1.9-1.5q-1-2.6-1.7-5.4c-1-3.8-1.5-7.7-1.5-11.8 0-4 0.5-7.9 1.3-11.7 0.9-3.8 2.2-7.5 3.9-10.9 1.7-3.4 3.8-6.5 6.2-9.3 2.4-2.9 5.1-5.4 8.1-7.5q2.1-1.4 4.3-2.6c1-0.4 1.9-0.9 2.8-1.2q0-0.1 0.1-0.1 1.2-0.5 2.7-1c3.5-1.2 7.3-1.7 11.2-1.7 5 0 9.7 0.6 14 2-0.2-1 0.3-2.1 1.2-2.6q0.6-0.3 1.2-0.3c0.7 0 1.3 0.3 1.7 0.7l10.7 10.7q0.9 0.8 1.6 1.6c3.6 3.8 6.5 8.6 8.5 14 2 5.5 3 11.6 3 18.2 0 4.1-0.4 8.2-1.3 12-0.9 3.9-2.2 7.5-3.9 10.9-1.7 3.4-3.8 6.6-6.2 9.4-2.4 2.8-5.2 5.3-8.3 7.4-3 2-6.4 3.6-10 4.7-3.6 1.2-7.4 1.8-11.5 1.8zm0.1-56.9q-2.3 0-4.1 0.9-1.8 0.9-3.1 2.4-1.3 1.6-2 3.7c-0.5 1.5-0.7 3.1-0.7 4.7 0 1.7 0.2 3.3 0.6 4.9 0.5 1.6 1.1 3 1.9 4.3q0.5 0.8 1.2 1.4 0.8 0.8 1.7 1.5c1.1 0.6 2.3 0.9 3.7 0.9 1.6 0 2.9-0.3 4.1-0.9q1.8-1 3.1-2.6 1.3-1.7 2-4 0.7-2.3 0.8-4.8 0-2.5-0.7-4.8-0.7-2.2-1.9-4-1.2-1.6-2.9-2.6c-1.1-0.6-2.3-1-3.7-1z"/>
				<path id="&lt;Compound Path&gt;" fill-rule="evenodd" class="s5" d="m403.8 166q0 6-1.3 11.5-1.3 5.5-3.7 10.4-2.4 4.8-5.9 8.8-3.4 4.1-7.7 6.9-4.4 2.9-9.4 4.5-5.1 1.6-10.8 1.6-2.8 0-5.4-0.4-2.6-0.3-5.1-1.1-4.9-1.5-9.3-4.2-2.8-1.8-5.4-4.1-0.1-0.1-0.3-0.3-1-0.9-1.8-1.8l-10.4-10.4h3.3q-1.9-4-3.1-8.5-1.4-5.4-1.4-11.2 0-5.7 1.3-11.2 1.3-5.4 3.7-10.3 2.4-4.8 5.9-8.9 3.4-4 7.6-7 2-1.3 4-2.4 1.3-0.6 2.6-1.2 0 0 0 0 1.3-0.5 2.6-1 5-1.6 10.5-1.6 8.8 0 16.2 2.9 0.6 0.3 1.3 0.6l-1.1-4.3 10.7 10.7q0.8 0.7 1.5 1.5 5.2 5.4 8 13.2 2.9 7.7 2.9 17.3zm-27.2 1.7q0-2.8-0.7-5.5-0.8-2.6-2.3-4.7-1.4-2-3.6-3.3-2.2-1.3-5-1.3-2.9 0-5.1 1.1-2.3 1.1-3.9 3.1-1.6 1.9-2.5 4.5-0.8 2.6-0.8 5.4 0 2.8 0.7 5.5 0.7 2.8 2.2 5 0.7 1 1.4 1.8 1 1.1 2.2 1.8 2.2 1.4 5.1 1.4 2.9 0 5.1-1.2 2.3-1.2 3.9-3.3 1.6-2.1 2.5-4.7 0.8-2.7 0.8-5.6z"/>
			</g>
			<path id="&lt;Compound Path&gt;" fill-rule="evenodd" class="s5" d="m86.5 201.1c-2.6 0-5.2-0.1-8-0.3-2.7-0.2-5.5-0.5-8.2-1-2.7-0.4-5.5-1-8.1-1.8-2.5-0.7-4.9-1.6-7.2-2.7q-0.2-0.1-0.6-0.3c-0.8-0.4-1.3-1.2-1.3-2.1l-0.1-77.7c0-1 0.6-1.9 1.5-2.3 2.3-0.9 4.8-1.8 7.4-2.6 2.6-0.7 5.3-1.4 8-1.9 2.7-0.5 5.5-0.9 8.1-1.2 2.7-0.3 5.3-0.4 7.9-0.4 2.9 0 5.9 0.2 8.9 0.6 3.1 0.3 6 1 8.9 1.9 2.8 0.9 5.5 2 8 3.5 2.4 1.4 4.6 3.1 6.5 5.2l0.2 0.2q2.9 3.3 4.6 7.7c1.1 2.8 1.6 6.2 1.6 9.9 0 2.5-0.4 4.9-1.1 7.1-0.7 2.2-1.8 4.2-3.1 6-1.4 1.8-3.1 3.3-5.1 4.6q-0.2 0.2-0.5 0.3 0.9 0.5 1.8 1c2.4 1.5 4.4 3.3 6.1 5.4 1.7 2.1 3 4.5 3.9 7.1 0.9 2.6 1.4 5.5 1.4 8.4 0 3.7-0.7 7-2.1 9.8-1.4 2.7-3.3 5-5.6 6.9q-1.9 1.6-4.2 2.8-1.6 1-3.5 1.7c-2.8 1.1-5.7 2-8.8 2.6-3 0.6-6 1.1-9 1.3-3 0.2-5.8 0.3-8.3 0.3zm-1.3-28q0.5 0.1 1 0.1 1.1 0 2.3-0.3 1.1-0.2 2-0.7 0.8-0.5 1.4-1.4 0 0 0.1-0.1c0.3-0.5 0.5-1.3 0.5-2.3q0-1.6-0.6-2.5-0.5-1-1.3-1.5-0.9-0.5-1.9-0.7-1.3-0.3-2.4-0.3-0.5 0-0.9 0.1zm0.2-26.3q0.3 0 0.7-0.1 1.7-0.2 3.2-0.8 1.4-0.6 2.4-1.8 0.7-0.9 0.7-2.8 0-1.1-0.4-1.7-0.4-0.8-1.1-1.3-0.7-0.5-1.5-0.8c-0.8-0.2-1.2-0.2-1.5-0.2q-0.9 0-1.7 0.2-0.2 0.1-0.5 0.2z"/>
			<path id="&lt;Compound Path&gt;" fill-rule="evenodd" class="s5" d="m155.8 197.9c-3 0-5.9-0.4-8.6-1.2-2.7-0.7-5.2-1.8-7.6-3.2-2.4-1.4-4.5-3-6.4-5-1.9-1.9-3.6-4.1-4.9-6.5-1.4-2.4-2.4-4.9-3.2-7.6-0.7-2.8-1.1-5.6-1.1-8.6 0-2.8 0.4-5.7 1-8.4 0.7-2.8 1.7-5.4 3-7.9 1.3-2.4 2.9-4.7 4.8-6.7 1.9-2.1 4-3.9 6.3-5.4 2.3-1.5 4.8-2.6 7.5-3.5 2.7-0.8 5.6-1.2 8.6-1.2 4.8 0 9.2 0.7 13.1 2.2 4 1.5 7.4 3.7 10.3 6.5 2.8 2.8 5 6.2 6.6 10.1 1.5 3.9 2.3 8.4 2.3 13.1 0 3-0.4 5.9-1.1 8.7-0.7 2.8-1.7 5.4-3 7.9-1.3 2.4-2.9 4.7-4.8 6.7-1.8 2.1-4 3.9-6.3 5.3-2.4 1.5-5 2.6-7.7 3.5-2.8 0.8-5.7 1.2-8.8 1.2zm0-40.1q-1.6 0-2.9 0.6-1.2 0.6-2.1 1.6-0.9 1-1.4 2.3-0.5 1.5-0.5 3.1 0 1.6 0.5 3.2 0.4 1.5 1.3 2.7 0.8 1.2 2 1.9 1 0.6 2.5 0.6 1.6 0 2.8-0.6 1.3-0.6 2.2-1.7 0.9-1.1 1.4-2.5 0.5-1.6 0.5-3.2 0-1.6-0.5-3.1-0.4-1.5-1.3-2.6-0.7-1-1.9-1.7-1.1-0.6-2.6-0.6z"/>
			<path id="&lt;Path&gt;" class="s5" d="m187.8 198.9c-0.7 0-1.3-0.3-1.8-0.7-0.4-0.5-0.7-1.1-0.6-1.8l1.6-65.4c0-1.3 1.1-2.3 2.3-2.4 0 0 23.2-1.1 23.2-1.1 1 0 1.8 0.5 2.2 1.4l11.6 24 0.5-21.2c0-1.3 1-2.3 2.3-2.4 0 0 21.9-0.7 21.9-0.7 0.7 0 1.3 0.3 1.7 0.7 0.5 0.5 0.8 1.2 0.7 1.9l-3.3 62.5c0 1.2-1 2.2-2.2 2.3l-24.2 2.2q-0.1 0.1-0.2 0.1c-1 0-1.9-0.7-2.3-1.6l-8.8-23-1.4 22.9c-0.1 1.3-1.1 2.3-2.4 2.3z"/>
			<path id="&lt;Compound Path&gt;" fill-rule="evenodd" class="s5" d="m283.2 201c-4.5 0-8.8-0.8-12.6-2.4-3.9-1.7-7.2-4-10-6.9-2.8-2.9-5-6.3-6.6-10.2-1.6-3.9-2.4-8.1-2.4-12.6 0-3.3 0.4-6.7 1.2-9.9 0.8-3.2 1.9-6.3 3.3-9.1 1.5-2.9 3.3-5.6 5.3-8 2.1-2.4 4.5-4.5 7.2-6.3 2.6-1.7 5.6-3.1 8.7-4.1 3.2-0.9 6.6-1.4 10.2-1.4q2 0 4.2 0.1 2.3 0.2 4.5 0.6 2.3 0.4 4.5 1.1 2.3 0.7 4.1 1.8c0.9 0.5 1.3 1.4 1.3 2.3l-1.3 16.7c0 0.8-0.4 1.5-1.1 1.9q-0.6 0.4-1.3 0.4-0.4 0-0.9-0.2-2.1-0.8-4.5-1.1-2.4-0.3-4.8-0.3-3 0-5.7 0.9-2.6 1-4.5 2.7-0.2 0.1-0.4 0.3 0.2 0 0.4 0c4.3-0.2 8.7-0.3 13.1-0.4 4.3-0.1 8.7-0.2 13.1-0.4q0 0 0.1 0c0.6 0 1.2 0.2 1.6 0.7 0.5 0.4 0.8 1 0.8 1.7l0.5 29.4c0 0.6-0.2 1.1-0.5 1.6-1.5 1.9-3.4 3.6-5.7 5-2.1 1.4-4.5 2.5-6.9 3.4-2.5 0.9-5 1.6-7.5 2.1-2.6 0.4-5.1 0.6-7.4 0.6zm-0.7-25.7q1.2 0.6 2.9 0.6 1.4 0 2.9-0.3 0.2-0.1 0.5-0.2zm-2.9-15.4q-0.3 0.6-0.5 1.1-1.1 2.5-1.1 5.6 0 1.9 0.5 3.7 0.2 0.9 0.6 1.7z"/>
			<path id="&lt;Compound Path&gt;" fill-rule="evenodd" class="s5" d="m351.4 198.6q-2.9 0-5.7-0.4-2.8-0.4-5.4-1.2c-3.5-1-6.8-2.5-9.9-4.5-3.1-1.9-5.9-4.2-8.4-6.9-2.5-2.7-4.6-5.8-6.3-9.1-1.8-3.2-3.1-6.8-4.1-10.5-0.9-3.8-1.4-7.8-1.4-11.8 0-4 0.4-7.9 1.3-11.8 0.9-3.8 2.2-7.4 3.9-10.8 1.7-3.4 3.8-6.5 6.2-9.4 2.4-2.8 5.1-5.3 8.1-7.4q2.1-1.5 4.3-2.6 1.3-0.7 2.7-1.3 0 0 0 0 1.4-0.5 2.8-1c3.6-1.2 7.3-1.8 11.3-1.8 6.1 0 11.9 1.1 17 3.1 5.2 2.1 9.7 5.2 13.4 9 3.6 3.9 6.5 8.7 8.5 14.1 2 5.4 3 11.5 3 18.2 0 4.1-0.5 8.1-1.4 12-0.9 3.9-2.2 7.5-3.9 10.9-1.6 3.4-3.7 6.6-6.2 9.4-2.4 2.8-5.2 5.3-8.2 7.3-3.1 2.1-6.4 3.7-10 4.8-3.6 1.2-7.5 1.7-11.5 1.7zm0-56.8q-2.3 0-4 0.9c-1.2 0.6-2.2 1.4-3.1 2.4q-1.3 1.6-2 3.7-0.8 2.2-0.8 4.7 0 2.4 0.7 4.9 0.6 2.3 1.9 4.2c0.8 1.2 1.7 2.2 2.9 2.9 1 0.7 2.2 1 3.7 1 1.5 0 2.8-0.3 4-0.9 1.3-0.7 2.3-1.5 3.1-2.6q1.3-1.7 2.1-4 0.7-2.3 0.7-4.8 0-2.5-0.7-4.8-0.6-2.3-1.8-4-1.2-1.6-2.9-2.6c-1.1-0.7-2.3-1-3.8-1z"/>
			<g id="&lt;Group&gt;">
				<g id="&lt;Group&gt;">
					<path id="&lt;Compound Path&gt;" fill-rule="evenodd" class="s2" d="m125.5 175.7q0 5-1.8 8.6-1.8 3.7-4.9 6.2-1.8 1.5-3.8 2.6-1.6 0.8-3.3 1.5-4 1.6-8.4 2.5-4.3 0.9-8.7 1.2-4.3 0.3-8.1 0.3-3.8 0-7.8-0.2-4-0.3-8-1-4-0.6-7.8-1.7-3.6-1.1-6.8-2.6-0.3-0.1-0.5-0.2v-0.3l-0.2-77.4q3.4-1.4 7.2-2.5 3.8-1.2 7.8-1.9 3.9-0.8 7.8-1.2 4-0.3 7.7-0.3 4.2 0 8.6 0.5 4.4 0.5 8.4 1.8 4.1 1.3 7.6 3.3 3.3 1.9 5.9 4.7l0.2 0.3q2.6 2.9 4.1 6.8 1.5 4 1.5 9.1 0 3.4-1 6.3-1 3-2.8 5.3-1.8 2.4-4.4 4-2.6 1.7-5.8 2.5 3.9 1 7.1 3 3.2 2 5.5 4.8 2.3 2.9 3.5 6.4 1.2 3.6 1.2 7.6zm-42.5-26.3q1.3 0 3.4-0.2 2-0.3 3.9-1.1 1.9-0.8 3.3-2.4 1.3-1.6 1.3-4.4 0-1.7-0.7-2.9-0.8-1.3-1.8-2.1-1.1-0.7-2.3-1.1-1.2-0.4-2.2-0.4-1.2 0-2.4 0.4-1.1 0.4-2.2 0.8zm11 22.7q0.1 0 0.1 0 0.9-1.4 0.9-3.7 0-2.3-0.9-3.8-0.9-1.4-2.2-2.2-1.2-0.8-2.7-1.1-1.5-0.3-2.8-0.3-1.6 0-3.2 0.3-0.1 0-0.2 0.1l-0.2 13.7q0.9 0.2 1.8 0.4 0.8 0.1 1.7 0.1 1.2 0 2.7-0.3 1.6-0.2 2.9-1 1.3-0.8 2.1-2.2z"/>
				</g>
				<path id="&lt;Compound Path&gt;" fill-rule="evenodd" class="s2" d="m185 164.6q0 4.2-0.9 8.1-1 3.9-2.8 7.3-1.9 3.4-4.5 6.3-2.6 2.8-5.8 4.9-3.3 2-7.1 3.1-3.8 1.1-8.1 1.1-4.2 0-7.9-1-3.8-1.1-7.1-3-3.2-1.9-5.9-4.6-2.6-2.7-4.5-6-1.9-3.3-2.9-7.1-1.1-3.8-1.1-7.9 0-4 1-7.8 1-3.9 2.8-7.3 1.8-3.4 4.4-6.3 2.6-2.8 5.8-4.9 3.2-2.1 6.9-3.2 3.8-1.2 7.9-1.2 6.7 0 12.2 2.1 5.5 2.1 9.4 5.9 3.9 3.9 6.1 9.3 2.1 5.5 2.1 12.2zm-20.5 1.2q0-2-0.5-3.8-0.6-1.9-1.7-3.3-1.1-1.5-2.8-2.4-1.6-0.9-3.7-0.9-2.2 0-3.9 0.8-1.7 0.8-2.9 2.1-1.2 1.4-1.9 3.2-0.6 1.8-0.6 3.9 0 1.9 0.5 3.8 0.6 2 1.7 3.5 1.1 1.6 2.7 2.6 1.7 1 3.8 1 2.2 0 3.9-0.9 1.8-0.9 3-2.3 1.2-1.5 1.8-3.4 0.6-1.8 0.6-3.9z"/>
				<path id="&lt;Compound Path&gt;" class="s2" d="m251 131l-3.3 62.6-24.2 2.2-12.9-33.5-2 34.2h-20.8l1.7-65.5 23-1.1 16 33.3 0.7-31.4z"/>
				<path id="&lt;Compound Path&gt;" class="s2" d="m308.8 188.3q-2.1 2.6-5.1 4.6-3 1.9-6.5 3.1-3.4 1.3-7.1 1.9-3.6 0.7-6.9 0.7-6.3 0-11.7-2.3-5.3-2.3-9.2-6.3-3.8-4-6-9.4-2.2-5.4-2.2-11.7 0-4.8 1.1-9.3 1.1-4.6 3.1-8.6 2-4.1 5-7.5 2.9-3.4 6.6-5.8 3.7-2.5 8.2-3.8 4.4-1.4 9.4-1.4 1.9 0 4 0.2 2.2 0.1 4.3 0.5 2.1 0.4 4.1 1 2.1 0.7 3.7 1.6l-1.2 16.7q-2.5-0.9-5.1-1.2-2.6-0.3-5.1-0.3-3.5 0-6.5 1-3 1.1-5.3 3.1-2.2 2-3.6 4.9-1.3 2.9-1.3 6.6 0 2.2 0.6 4.3 0.7 2.2 1.9 3.8 1.2 1.7 3.1 2.7 1.9 1 4.3 1 1.7 0 3.5-0.5 1.7-0.4 3-1.5l0.2-3.4-10.5-0.1 0.5-13.2q6.5-0.2 13-0.3 6.6-0.2 13.2-0.5z"/>
				<path id="&lt;Compound Path&gt;" fill-rule="evenodd" class="s2" d="m390.2 152.5q0 5.9-1.3 11.5-1.2 5.5-3.6 10.3-2.5 4.9-5.9 8.9-3.5 4-7.8 6.9-4.3 2.9-9.4 4.5-5 1.6-10.7 1.6h-0.1q-2.7 0-5.3-0.4-2.6-0.4-5.1-1.1-5-1.5-9.3-4.2-4.4-2.8-7.9-6.6-3.5-3.8-6-8.5-2.4-4.7-3.8-10-1.4-5.4-1.4-11.2 0-5.7 1.3-11.2 1.3-5.5 3.7-10.3 2.4-4.8 5.8-8.9 3.4-4.1 7.7-7 1.9-1.3 4-2.4 1.3-0.7 2.6-1.2 0 0 0 0 1.3-0.6 2.6-1 4.9-1.6 10.5-1.6 8.8 0 16.1 2.9 7.3 3 12.5 8.4 5.2 5.5 8 13.2 2.8 7.8 2.8 17.4zm-34.3 15.2q2.3-1.2 3.9-3.2 1.6-2.1 2.4-4.8 0.9-2.7 0.9-5.5 0-2.9-0.8-5.5-0.7-2.7-2.2-4.7-1.5-2.1-3.6-3.4-2.2-1.2-5-1.2-2.9 0-5.2 1.1-2.2 1.1-3.8 3-1.7 2-2.5 4.5-0.9 2.6-0.9 5.5 0 2.8 0.8 5.5 0.7 2.8 2.2 5 1.4 2.2 3.6 3.6 2.2 1.4 5.1 1.4 2.8 0 5.1-1.3z"/>
			</g>
			<g id="&lt;Group&gt;">
				<g id="&lt;Group&gt;">
					<path id="&lt;Compound Path&gt;" class="s4" d="m151.3 95l1 12.2-22.6 5.8q-1.5-9.5-2.9-18.9-1.4-9.4-2.8-18.9l14.1-2.4q0.4 6 0.9 12 0.5 6.1 1.3 12.1 1.3-0.2 2.5-0.4 1.3-0.2 2.5-0.4 1.5-0.3 3-0.6 1.5-0.2 3-0.5z"/>
					<path id="&lt;Compound Path&gt;" fill-rule="evenodd" class="s4" d="m213.6 91.4q0 2.4-0.6 4.6-0.5 2.2-1.6 4.2-1 1.9-2.5 3.5-1.5 1.6-3.4 2.8-1.8 1.2-4 1.8-2.2 0.7-4.6 0.7-2.4 0-4.6-0.7-2.1-0.6-4-1.7-1.8-1-3.4-2.6-1.5-1.5-2.5-3.4-1.1-1.9-1.7-4.1-0.6-2.1-0.6-4.5 0-2.2 0.6-4.4 0.5-2.2 1.6-4.2 1-1.9 2.5-3.6 1.5-1.6 3.3-2.8 1.8-1.2 3.9-1.8 2.2-0.7 4.6-0.7 3.8 0 6.9 1.2 3.2 1.2 5.4 3.4 2.2 2.2 3.4 5.3 1.3 3.1 1.3 7zm-11.7 0.6q0-1.1-0.4-2.2-0.3-1-0.9-1.9-0.7-0.8-1.6-1.3-0.9-0.5-2.1-0.5-1.3 0-2.2 0.4-1 0.5-1.7 1.3-0.7 0.7-1.1 1.8-0.4 1-0.4 2.2 0 1.1 0.4 2.2 0.3 1.1 0.9 2 0.6 0.9 1.6 1.4 0.9 0.6 2.2 0.6 1.2 0 2.2-0.5 1-0.5 1.6-1.3 0.7-0.8 1.1-1.9 0.4-1.1 0.4-2.3z"/>
					<path id="&lt;Compound Path&gt;" class="s4" d="m261.9 74.1v10.7q-0.8-0.1-1.5-0.1-0.7 0-1.5 0.1-1.8 0.3-3.4 1-1.6 0.7-2.7 1.8-1.2 1.2-1.7 2.8-0.6 1.6-0.3 3.6 0.1 1.3 0.7 2.2 0.5 0.9 1.3 1.4 0.8 0.5 1.9 0.7 1.1 0.1 2.3 0 0.9-0.2 1.9-0.5 0.9-0.3 1.9-0.8 0.9-0.4 1.7-1 0.9-0.5 1.6-1.1l0.6 11.8q-0.9 0.7-2 1.2-1.1 0.5-2.2 1-1.2 0.4-2.4 0.7-1.1 0.3-2.2 0.5-3.2 0.4-6.1-0.4-2.9-0.8-5.1-2.6-2.3-1.8-3.8-4.4-1.5-2.6-2-5.8-0.5-4.2 0.2-8.1 0.7-4 2.7-7.1 2-3.1 5.2-5.2 3.3-2.1 7.8-2.7 1.8-0.3 3.6-0.2 1.8 0 3.5 0.5z"/>
					<path id="&lt;Compound Path&gt;" fill-rule="evenodd" class="s4" d="m331.8 84.5q0.1 2.6-0.5 5.1-0.5 2.4-1.6 4.6-1.1 2.2-2.7 4-1.6 1.8-3.6 3.1-2 1.3-4.4 2.1-2.4 0.8-5.1 0.8-2.6 0.1-5-0.5-2.4-0.6-4.5-1.8-2-1.1-3.7-2.8-1.7-1.7-3-3.7-1.2-2-1.9-4.4-0.7-2.4-0.8-4.9 0-2.6 0.5-5 0.6-2.4 1.7-4.6 1.1-2.2 2.7-4 1.5-1.8 3.5-3.2 2-1.3 4.3-2.1 2.4-0.8 5-0.8 4.2-0.1 7.7 1.1 3.5 1.2 6 3.6 2.5 2.3 3.9 5.7 1.4 3.4 1.5 7.7zm-12.8 1q-0.1-1.2-0.5-2.4-0.3-1.2-1.1-2.1-0.7-0.9-1.7-1.4-1.1-0.5-2.4-0.5-1.4 0-2.4 0.5-1.1 0.6-1.8 1.4-0.8 0.9-1.1 2.1-0.4 1.1-0.4 2.4 0 1.2 0.4 2.4 0.4 1.2 1.1 2.2 0.7 1 1.8 1.5 1 0.6 2.4 0.6 1.3 0 2.4-0.6 1.1-0.6 1.8-1.5 0.7-0.9 1.1-2.1 0.4-1.2 0.4-2.5z"/>
				</g>
			</g>
			<g id="&lt;Group&gt;">
				<path id="&lt;Path&gt;" class="s5" d="m176.3 288.6q-0.5 0-1-0.2l-18.2-6.8c-0.8-0.3-1.4-1-1.6-1.8-0.2-0.8-0.1-1.7 0.4-2.4l12.2-16.4c0.5-0.7 1.2-1.1 2.1-1.1q0 0 0 0c0.9 0 1.6 0.4 2.2 1 3 3.8 6.1 7.7 9.1 11.7q1.4 1.8 2.8 3.7c0.8 0.9 0.8 2.3 0.1 3.2l-5.9 8c-0.6 0.7-1.4 1.1-2.2 1.1z"/>
				<path id="&lt;Path&gt;" class="s5" d="m202.3 256.1q-0.5 0-1-0.2l-18.1-6.8c-0.9-0.3-1.6-1.1-1.7-2-0.2-1 0.1-1.9 0.8-2.6 4.8-4.3 10.5-10.1 16.9-17.1l0.5-0.6c0.5-0.5 1.2-0.8 2-0.8q0.5 0 0.9 0.1l18.2 6.9c0.8 0.3 1.5 1 1.7 1.9 0.2 0.9-0.1 1.8-0.7 2.5l-0.5 0.5c-6.4 7.1-12.2 12.9-17.2 17.5-0.5 0.5-1.1 0.7-1.8 0.7z"/>
				<path id="&lt;Path&gt;" class="s5" d="m217.7 272.1q-0.5 0-1-0.1l-18.1-6.9q-0.6-0.2-1-0.6l-15.4-16.1c-0.9-0.9-1-2.3-0.3-3.4 0.5-0.7 1.3-1.2 2.2-1.2q0.5 0 1 0.2l18.2 6.8q0.5 0.3 1 0.7l15.4 16c0.8 0.9 1 2.4 0.3 3.4-0.5 0.8-1.4 1.2-2.3 1.2z"/>
				<path id="&lt;Path&gt;" class="s5" d="m219.8 238.3q-0.5 0-0.9-0.2l-18.2-6.9q-0.6-0.2-1-0.6-1.1-1.2-2.3-2.3c-3.6-3.6-8.1-7.4-13.5-11.2-1.1-0.8-1.4-2.2-0.8-3.5 0.5-0.9 1.5-1.4 2.4-1.4q0.5 0 1 0.2l18.2 6.8q0.3 0.2 0.6 0.4c6.8 4.8 12.3 9.6 16.5 14.1 0.9 0.9 1 2.3 0.3 3.4-0.5 0.7-1.4 1.2-2.3 1.2z"/>
				<path id="&lt;Path&gt;" class="s5" d="m158.1 281.8c-0.5 0-1.1-0.2-1.6-0.5-1.9-1.4-3.9-3-6-4.7-3.3-2.8-6.9-6.2-10.6-10.1-0.9-0.9-1-2.4-0.3-3.4 3-4.3 7.7-9.9 14.3-17.1-4.6-5.7-9.3-10.9-14-15.4-1.1-1.1-1.1-2.8-0.1-3.9 4.8-5.1 10.6-10.1 17.2-14.7 0.5-0.4 1.1-0.5 1.6-0.5 0.8 0 1.6 0.3 2.2 1 3.4 4.6 6.3 8.3 8.6 11.3l0.6 0.7q0.4 0.5 0.8 1 0.4 0.6 0.8 1.1 2.4-2.9 4.5-5.5c2.7-3.1 5.2-5.8 7.5-8.1 0.6-0.5 1.2-0.8 1.9-0.8 0.6 0 1.1 0.2 1.6 0.5 5.6 4 10.3 7.9 14.2 11.7 0.8 0.8 1.6 1.6 2.4 2.4 0.9 1.1 0.9 2.7 0 3.7l-0.5 0.6c-5.7 6.1-10.8 11.3-15.2 15.6l13.5 14c1 1 1 2.6 0.1 3.7-3 3.4-6.1 6.7-9.2 9.7-2.1 2-4.2 3.9-6.3 5.7l-0.4 0.3q-0.5 0.5-1.1 0.9c-0.5 0.4-1.1 0.6-1.7 0.6q-0.2 0-0.3 0c-0.8-0.1-1.4-0.5-1.9-1.1q-0.4-0.5-0.7-0.9-1.4-1.9-2.8-3.7-3.4-4.4-6.9-8.8l-10 13.6c-0.5 0.7-1.4 1.1-2.2 1.1z"/>
				<path id="&lt;Path&gt;" class="s5" d="m201.1 288.5q-0.5 0-1-0.2l-18.2-6.9c-0.9-0.3-1.5-1.1-1.7-2.1-0.1-0.9 0.2-1.9 1-2.5q0.5-0.4 1-0.9l0.4-0.3c2-1.7 4-3.5 6-5.5 3-2.8 6-6 8.9-9.3 0.5-0.6 1.3-1 2-1q0.5 0 1 0.2l18.2 6.9c0.8 0.3 1.4 1 1.6 1.8 0.3 0.9 0 1.8-0.5 2.5-4.9 5.6-10.1 10.8-15.6 15.4q-0.7 0.6-1.4 1.2c-0.5 0.4-1.1 0.7-1.7 0.7z"/>
				<path id="&lt;Path&gt;" class="s5" d="m171.7 233.7c-0.8 0-1.6-0.4-2.1-1q-1.2-1.5-3-3.8-0.5-0.5-0.9-1.1l-0.6-0.6c-2.3-3-5.2-6.8-8.7-11.4-0.7-0.9-0.7-2.3 0-3.2 0.5-0.7 1.4-1.1 2.2-1.1q0.5 0 1 0.1l18.1 6.9q0.8 0.3 1.2 0.9 0.8 0.9 1.5 1.8c0.7 1.1 0.7 2.5-0.1 3.5-1.7 2-3.5 4.2-5.4 6.5q-0.5 0.7-1 1.4c-0.5 0.6-1.3 1-2.1 1.1q-0.1 0-0.1 0z"/>
				<path id="&lt;Path&gt;" class="s5" d="m240.5 288.6q-0.5 0-1-0.1l-18.1-6.9c-0.8-0.3-1.4-0.9-1.7-1.8-0.2-0.8-0.1-1.7 0.4-2.4l12.2-16.4c0.5-0.6 1.3-1.1 2.1-1.1q0 0 0.1 0c0.8 0 1.6 0.4 2.1 1 3 3.8 6.1 7.8 9.2 11.7q1.4 1.8 2.8 3.7c0.7 1 0.7 2.3 0 3.2l-5.9 8c-0.5 0.7-1.4 1.1-2.2 1.1z"/>
				<path id="&lt;Path&gt;" class="s5" d="m266.5 256.1q-0.5 0-0.9-0.1l-18.2-6.9c-0.9-0.3-1.5-1.1-1.7-2-0.2-0.9 0.1-1.9 0.8-2.5 4.8-4.4 10.5-10.2 16.9-17.2l0.5-0.5c0.5-0.6 1.3-0.9 2-0.9q0.5 0 1 0.2l18.1 6.8c0.9 0.3 1.5 1 1.7 1.9 0.2 0.9 0 1.8-0.6 2.5l-0.5 0.5c-6.5 7.1-12.3 13-17.2 17.5-0.5 0.5-1.2 0.7-1.9 0.7z"/>
				<path id="&lt;Path&gt;" class="s5" d="m281.9 272.2q-0.5 0-0.9-0.2l-18.2-6.9q-0.6-0.2-1-0.6l-15.4-16.1c-0.9-0.9-1-2.3-0.3-3.3 0.5-0.8 1.4-1.3 2.3-1.3q0.4 0 0.9 0.2l18.2 6.9q0.6 0.2 1 0.6l15.4 16c0.9 1 1 2.4 0.3 3.4-0.5 0.8-1.4 1.3-2.3 1.3z"/>
				<path id="&lt;Path&gt;" class="s5" d="m284.1 238.3q-0.5 0-1-0.2l-18.2-6.8q-0.6-0.3-1-0.7-1.1-1.2-2.2-2.3c-3.7-3.6-8.2-7.3-13.5-11.1-1.1-0.8-1.5-2.3-0.8-3.5 0.4-0.9 1.4-1.5 2.4-1.5q0.4 0 0.9 0.2l18.2 6.8q0.3 0.2 0.6 0.4c6.8 4.8 12.4 9.6 16.6 14.1 0.8 0.9 0.9 2.3 0.2 3.4-0.5 0.7-1.4 1.2-2.2 1.2z"/>
				<path id="&lt;Path&gt;" class="s5" d="m222.3 281.8c-0.5 0-1.1-0.2-1.5-0.5-2-1.4-4-2.9-6.1-4.7-3.3-2.8-6.9-6.2-10.6-10.1-0.9-0.9-1-2.4-0.3-3.4 3-4.3 7.7-9.9 14.3-17-4.6-5.8-9.3-11-14-15.5-1-1.1-1.1-2.8-0.1-3.8 4.9-5.2 10.6-10.2 17.3-14.8 0.4-0.4 1-0.5 1.5-0.5 0.9 0 1.7 0.3 2.2 1.1 3.4 4.4 6.3 8.2 8.7 11.2l0.5 0.7q0.4 0.5 0.8 1 0.5 0.6 0.9 1.1 2.3-2.9 4.4-5.5c2.7-3.1 5.2-5.8 7.6-8.1 0.5-0.5 1.2-0.8 1.9-0.8 0.5 0 1.1 0.2 1.5 0.5 5.6 4 10.3 7.9 14.2 11.7q1.2 1.2 2.4 2.4c1 1.1 1 2.7 0 3.7l-0.5 0.6c-5.6 6.1-10.7 11.4-15.2 15.6l13.5 14c1 1 1 2.6 0.1 3.7-3 3.4-6.1 6.7-9.2 9.7-2.1 2-4.2 3.9-6.3 5.7l-0.4 0.3q-0.5 0.5-1 0.9c-0.5 0.4-1.1 0.6-1.8 0.6q-0.1 0-0.3 0c-0.7-0.1-1.4-0.5-1.8-1.1h-0.1q-0.3-0.5-0.7-0.9-1.4-1.9-2.7-3.7-3.5-4.4-6.9-8.8l-10.1 13.6c-0.5 0.7-1.3 1.1-2.2 1.1z"/>
				<path id="&lt;Path&gt;" class="s5" d="m265.3 288.5q-0.5 0-1-0.2l-18.1-6.8c-0.9-0.4-1.6-1.2-1.8-2.2-0.1-0.9 0.3-1.9 1-2.5q0.5-0.4 1-0.9l0.4-0.3c2-1.7 4-3.5 6-5.4 3-2.9 6-6.1 8.9-9.4 0.5-0.6 1.3-0.9 2.1-0.9q0.5 0 0.9 0.1l18.2 6.9c0.8 0.3 1.4 1 1.7 1.9 0.2 0.8 0 1.7-0.6 2.4-4.9 5.7-10.1 10.9-15.5 15.4q-0.7 0.6-1.5 1.2c-0.5 0.5-1.1 0.7-1.7 0.7z"/>
				<path id="&lt;Path&gt;" class="s5" d="m235.9 233.7c-0.8 0-1.5-0.4-2-1q-1.3-1.5-3.1-3.8-0.4-0.5-0.9-1l-0.5-0.7c-2.4-3-5.3-6.8-8.7-11.4-0.8-0.9-0.8-2.3-0.1-3.2 0.6-0.7 1.4-1.1 2.2-1.1q0.5 0 1 0.2l18.2 6.8q0.7 0.3 1.2 0.9 0.7 1 1.4 1.9c0.8 1 0.7 2.4-0.1 3.4-1.7 2-3.5 4.2-5.4 6.6q-0.5 0.6-1 1.3c-0.5 0.7-1.3 1.1-2.1 1.1q0 0-0.1 0z"/>
				<path id="&lt;Path&gt;" class="s5" d="m305.7 287.4q-2.4 0-4.8 0c-3.5-0.1-7-0.2-10.5-0.3q-0.4 0-0.9-0.1l-18.1-6.9c-1.3-0.5-2-1.8-1.7-3.1 0.2-1.2 1.3-2.2 2.6-2.2q0.1 0 0.1 0c3.4 0.2 6.9 0.2 10.4 0.3q2.3 0 4.6 0 1.6 0 3.2 0c7.2-0.1 13.5-0.4 18.9-0.9q0.1 0 0.2 0 0.5 0 1 0.2l18.1 6.8c1.2 0.5 2 1.7 1.8 2.9-0.2 1.3-1.2 2.3-2.5 2.4-6.2 0.6-13.7 0.9-22.4 0.9z"/>
				<path id="&lt;Path&gt;" class="s5" d="m287.4 280.6q-2.3 0-4.7-0.1c-3.5 0-7-0.1-10.5-0.2-1.4-0.1-2.6-1.3-2.6-2.8l0.1-6.3c0.3-11.9 0.4-21.4 0.5-28.9q0-2.7 0.1-5.2v-1.4c0-8.2 0-14.5-0.1-18.5 0-1.4 1.1-2.7 2.5-2.8 5.8-0.4 11.1-0.6 15.9-0.6q2.1 0 4 0c1.5 0.1 2.7 1.3 2.7 2.7v10.3l-0.1 29.5 15.3-0.4q0.2 0 0.4 0c1.4 0 2.6 1.1 2.7 2.6 0.1 2.6 0.1 5.1 0 7.5 0 1.2-0.1 2.3-0.2 3.2-0.2 2.9-0.5 5.7-1 8.2-0.2 1.2-1.2 2.1-2.4 2.3-5.5 0.5-12 0.8-19.3 0.8q-1.6 0.1-3.3 0.1z"/>
				<path id="&lt;Path&gt;" class="s5" d="m327.9 286.5q-0.5 0-1-0.2l-18.1-6.8c-1.3-0.5-2-1.8-1.7-3.1 0.4-2.3 0.7-4.9 0.9-7.6 0.1-0.9 0.1-1.8 0.2-3q0.1-3.4-0.1-7.1c0-0.9 0.4-1.8 1.2-2.3 0.4-0.4 1-0.5 1.6-0.5q0.4 0 0.9 0.1l18.2 6.9c1 0.4 1.7 1.3 1.7 2.4 0.2 3.8 0.1 7.4-0.1 10.8-0.2 2.9-0.6 5.6-1 8.2-0.2 0.8-0.7 1.5-1.4 1.9q-0.6 0.3-1.3 0.3z"/>
				<path id="&lt;Path&gt;" class="s5" d="m292.5 261.8c-0.7 0-1.4-0.3-1.9-0.8-0.5-0.5-0.8-1.2-0.8-2v-32.2-10.3c0-0.9 0.5-1.7 1.2-2.2 0.5-0.3 1-0.5 1.5-0.5q0.5 0 1 0.2l18.2 6.8c1 0.4 1.7 1.4 1.7 2.6v35.2c0 1.5-1.2 2.7-2.7 2.7l-3 0.1q-2.5 0-4.9 0.1c0 0-10.3 0.3-10.3 0.3z"/>
				<g id="&lt;Group&gt;">
					<path id="&lt;Path&gt;" class="s6" d="m182.2 277.9l-5.9 8-18.2-6.9 4-5.4 8.1-11q4.7 5.8 9.2 11.6 1.4 1.9 2.8 3.7z"/>
					<path id="&lt;Path&gt;" class="s6" d="m219.8 235.5l-0.5 0.6q-9.7 10.6-17 17.3l-18.2-6.9q7.4-6.7 17.1-17.3 0.2-0.2 0.5-0.5z"/>
					<path id="&lt;Path&gt;" class="s3" d="m217.7 269.4l-18.2-6.8-15.4-16.1 18.2 6.9z"/>
					<path id="&lt;Path&gt;" class="s2" d="m219.8 235.5l-18.1-6.8q-1.1-1.2-2.4-2.4-5.6-5.5-13.8-11.4l18.2 6.9q10 7.1 16.1 13.7z"/>
					<path id="&lt;Path&gt;" class="s7" d="m184.1 246.5l15.4 16.1q-4.3 5-9 9.5-3 2.9-6.2 5.6-0.7 0.6-1.4 1.2-0.4-0.5-0.7-1-1.4-1.8-2.8-3.7-4.5-5.8-9.2-11.6l-8.1 11-4 5.4q-2.8-1.9-5.9-4.5-4.9-4.2-10.4-9.9 4.7-6.6 15.6-18.4-7.6-9.9-15.6-17.6 7-7.5 16.8-14.4 5.2 6.9 8.7 11.3 0.7 0.9 1.4 1.7 1.8 2.3 3 3.7 0.5-0.7 1.1-1.3 2.8-3.6 5.4-6.7 3.9-4.6 7.3-8 8.2 5.9 13.8 11.4 1.3 1.2 2.4 2.4-0.3 0.3-0.5 0.5-9.7 10.6-17.1 17.3z"/>
					<path id="&lt;Path&gt;" class="s6" d="m217.7 269.4q-7.2 8.4-15.2 15.1-0.7 0.6-1.4 1.2l-18.2-6.8q0.7-0.6 1.4-1.2 3.2-2.7 6.2-5.6 4.7-4.5 9-9.5z"/>
					<path id="&lt;Path&gt;" class="s2" d="m178.2 222.9q-2.6 3.1-5.4 6.7-0.6 0.6-1.1 1.3-1.2-1.4-3-3.7-0.7-0.8-1.4-1.7-3.5-4.4-8.7-11.3l18.2 6.8q0.7 1 1.4 1.9z"/>
					<path id="&lt;Path&gt;" class="s6" d="m246.4 277.9l-5.9 8-18.2-6.8 4-5.4 8.2-11q4.6 5.7 9.1 11.6 1.4 1.8 2.8 3.6z"/>
					<path id="&lt;Path&gt;" class="s6" d="m284.1 235.5l-0.5 0.6q-9.7 10.6-17.1 17.3l-18.1-6.8q7.3-6.8 17-17.4 0.3-0.2 0.5-0.5z"/>
					<path id="&lt;Path&gt;" class="s3" d="m281.9 269.4l-18.1-6.8-15.4-16 18.1 6.8z"/>
					<path id="&lt;Path&gt;" class="s2" d="m284.1 235.5l-18.2-6.8q-1.1-1.2-2.3-2.4-5.6-5.5-13.8-11.4l18.1 6.9q10 7.2 16.2 13.7z"/>
					<path id="&lt;Path&gt;" class="s7" d="m248.4 246.6l15.4 16q-4.4 5-9.1 9.5-3 2.9-6.1 5.6-0.8 0.6-1.5 1.2-0.3-0.5-0.7-1-1.4-1.8-2.8-3.6-4.5-5.9-9.1-11.6l-8.2 11-4 5.4q-2.8-2-5.8-4.6-5-4.1-10.4-9.9 4.6-6.6 15.6-18.4-7.7-9.9-15.7-17.6 7.1-7.5 16.8-14.4 5.3 6.9 8.7 11.3 0.8 0.9 1.4 1.7 1.9 2.4 3 3.7 0.6-0.6 1.1-1.3 2.8-3.6 5.4-6.7 3.9-4.6 7.4-8 8.2 5.9 13.8 11.4 1.2 1.2 2.3 2.4-0.2 0.3-0.5 0.5-9.7 10.6-17 17.4z"/>
					<path id="&lt;Path&gt;" class="s6" d="m281.9 269.4q-7.2 8.4-15.2 15.2-0.7 0.6-1.4 1.1l-18.2-6.8q0.7-0.6 1.5-1.2 3.1-2.7 6.1-5.6 4.7-4.5 9.1-9.5z"/>
					<path id="&lt;Path&gt;" class="s2" d="m242.4 222.9q-2.6 3.1-5.4 6.7-0.5 0.7-1.1 1.3-1.1-1.3-3-3.7-0.6-0.8-1.4-1.7-3.4-4.4-8.7-11.3l18.2 6.8q0.7 1 1.4 1.9z"/>
					<path id="&lt;Path&gt;" class="s6" d="m327.9 283.8q-10.9 1-27 0.8-5 0-10.4-0.2l-18.2-6.8q5.5 0.1 10.4 0.2 4.1 0.1 7.9 0 11-0.1 19.1-0.9z"/>
					<path id="&lt;Path&gt;" class="s7" d="m310.9 265.9q-0.1 1.6-0.2 3.1-0.3 4.3-1 7.9-8.1 0.8-19.1 0.9-3.8 0.1-7.9 0-4.9-0.1-10.4-0.2 0.1-1.6 0.1-3.1 0-1.7 0.1-3.3 0.3-16.8 0.4-28.9 0.1-3.5 0.1-6.6 0.1-12.5-0.1-18.5 11-0.9 19.6-0.7v7.4 2.9 32.2q4.9-0.1 10.2-0.2 3.9-0.1 8-0.2 0.1 0 0.2 0 0.1 3.8 0 7.3z"/>
					<path id="&lt;Path&gt;" class="s3" d="m328.9 275.9q-0.3 4.2-1 7.9l-18.2-6.9q0.7-3.6 1-7.9 0.1-1.5 0.2-3.1 0.1-3.5 0-7.3l18.1 6.8q0.2 5.6-0.1 10.5z"/>
					<path id="&lt;Path&gt;" class="s3" d="m310.7 223.4v10.2 25q-4.1 0.1-8 0.2-5.3 0.1-10.2 0.2v-32.2-2.9-7.4z"/>
				</g>
			</g>
		</g>
	</g>
</svg>